<svg xmlns="http://www.w3.org/2000/svg" version="1.1" xmlns:xlink="http://www.w3.org/1999/xlink" xmlns:svgjs="http://svgjs.com/svgjs" width="1440" height="560" preserveAspectRatio="none" viewBox="0 0 1440 560"><g mask="url(&quot;#SvgjsMask1007&quot;)" fill="none"><path d="M 0,238 C 57.6,212.8 172.8,121.8 288,112 C 403.2,102.2 460.8,185.8 576,189 C 691.2,192.2 748.8,131.6 864,128 C 979.2,124.4 1036.8,188.4 1152,171 C 1267.2,153.6 1382.4,67 1440,41L1440 560L0 560z" fill="rgba(203, 219, 236, 1)"></path><path d="M 0,413 C 96,418 288,457 480,438 C 672,419 768,305.8 960,318 C 1152,330.2 1344,462.8 1440,499L1440 560L0 560z" fill="rgba(224, 238, 254, 1)"></path></g><defs><mask id="SvgjsMask1007"><rect width="1440" height="560" fill="#ffffff"></rect></mask></defs></svg>